<mxfile host="app.diagrams.net" agent="Mozilla/5.0 (X11; Linux x86_64) AppleWebKit/537.36 (KHTML, like Gecko) Chrome/130.0.0.0 Safari/537.36" version="24.7.16">
  <diagram name="Page-1" id="zFyxZJ9HDvcPgiqDjyft">
    <mxGraphModel dx="1368" dy="754" grid="0" gridSize="10" guides="1" tooltips="1" connect="1" arrows="1" fold="1" page="1" pageScale="1" pageWidth="1600" pageHeight="1300" math="0" shadow="0">
      <root>
        <mxCell id="0" />
        <mxCell id="1" parent="0" />
        <mxCell id="P_Gc4P2CAjgiyAQ91wl4-1" value="&lt;font style=&quot;font-size: 16px;&quot;&gt;User&lt;/font&gt;" style="shape=umlActor;verticalLabelPosition=bottom;verticalAlign=top;html=1;outlineConnect=0;" vertex="1" parent="1">
          <mxGeometry x="113" y="263" width="67" height="136" as="geometry" />
        </mxCell>
        <mxCell id="P_Gc4P2CAjgiyAQ91wl4-4" value="" style="verticalLabelPosition=bottom;shadow=0;dashed=0;align=center;html=1;verticalAlign=top;strokeWidth=1;shape=mxgraph.mockup.graphics.lineChart;strokeColor=none;strokeColor2=#666666;strokeColor3=#008cff;strokeColor4=#dddddd;" vertex="1" parent="1">
          <mxGeometry x="290" y="297" width="58" height="46" as="geometry" />
        </mxCell>
        <mxCell id="P_Gc4P2CAjgiyAQ91wl4-5" value="&lt;font style=&quot;font-size: 16px;&quot;&gt;Computer/Smartphone&lt;/font&gt;" style="verticalLabelPosition=bottom;html=1;verticalAlign=top;align=center;strokeColor=none;fillColor=#000000;shape=mxgraph.azure.computer;pointerEvents=1;" vertex="1" parent="1">
          <mxGeometry x="262.5" y="285" width="113" height="92" as="geometry" />
        </mxCell>
        <mxCell id="P_Gc4P2CAjgiyAQ91wl4-6" value="" style="shape=mxgraph.arrows2.wedgeArrowDashed2;html=1;bendable=0;startWidth=50;stepSize=15;rounded=0;entryX=0.75;entryY=0.1;entryDx=0;entryDy=0;entryPerimeter=0;" edge="1" parent="1" target="P_Gc4P2CAjgiyAQ91wl4-1">
          <mxGeometry width="100" height="100" relative="1" as="geometry">
            <mxPoint x="241" y="313" as="sourcePoint" />
            <mxPoint x="166" y="288" as="targetPoint" />
          </mxGeometry>
        </mxCell>
        <mxCell id="P_Gc4P2CAjgiyAQ91wl4-7" value="&lt;font style=&quot;font-size: 16px;&quot;&gt;Internet&lt;/font&gt;" style="sketch=0;outlineConnect=0;fontColor=#232F3E;gradientColor=none;fillColor=#000000;strokeColor=none;dashed=0;verticalLabelPosition=bottom;verticalAlign=top;align=center;html=1;fontSize=12;fontStyle=0;aspect=fixed;pointerEvents=1;shape=mxgraph.aws4.internet_alt2;" vertex="1" parent="1">
          <mxGeometry x="467" y="292" width="78" height="78" as="geometry" />
        </mxCell>
        <mxCell id="P_Gc4P2CAjgiyAQ91wl4-13" value="" style="endArrow=none;dashed=1;html=1;rounded=0;exitX=1;exitY=0.5;exitDx=0;exitDy=0;exitPerimeter=0;" edge="1" parent="1" source="P_Gc4P2CAjgiyAQ91wl4-5" target="P_Gc4P2CAjgiyAQ91wl4-7">
          <mxGeometry width="50" height="50" relative="1" as="geometry">
            <mxPoint x="377" y="351" as="sourcePoint" />
            <mxPoint x="427" y="301" as="targetPoint" />
          </mxGeometry>
        </mxCell>
        <mxCell id="P_Gc4P2CAjgiyAQ91wl4-16" value="" style="endArrow=none;dashed=1;html=1;rounded=0;" edge="1" parent="1" source="P_Gc4P2CAjgiyAQ91wl4-44" target="P_Gc4P2CAjgiyAQ91wl4-7">
          <mxGeometry width="50" height="50" relative="1" as="geometry">
            <mxPoint x="612.7120000000002" y="329.78693" as="sourcePoint" />
            <mxPoint x="520" y="393" as="targetPoint" />
          </mxGeometry>
        </mxCell>
        <mxCell id="P_Gc4P2CAjgiyAQ91wl4-33" value="&lt;font style=&quot;font-size: 16px;&quot;&gt;Sensor&lt;/font&gt;" style="verticalLabelPosition=bottom;sketch=0;html=1;fillColor=#000000;strokeColor=#FFFFFF;verticalAlign=top;align=center;points=[[0,0.5,0],[0.125,0.25,0],[0.25,0,0],[0.5,0,0],[0.75,0,0],[0.875,0.25,0],[1,0.5,0],[0.875,0.75,0],[0.75,1,0],[0.5,1,0],[0.125,0.75,0]];pointerEvents=1;shape=mxgraph.cisco_safe.compositeIcon;bgIcon=mxgraph.cisco_safe.design.blank_device;resIcon=mxgraph.cisco_safe.design.sensor;" vertex="1" parent="1">
          <mxGeometry x="969" y="304.38" width="64" height="53.25" as="geometry" />
        </mxCell>
        <mxCell id="P_Gc4P2CAjgiyAQ91wl4-36" value="&lt;font style=&quot;font-size: 16px;&quot;&gt;Device&lt;/font&gt;" style="sketch=0;outlineConnect=0;fontColor=#232F3E;gradientColor=none;fillColor=#000000;strokeColor=none;dashed=0;verticalLabelPosition=bottom;verticalAlign=top;align=center;html=1;fontSize=12;fontStyle=0;aspect=fixed;pointerEvents=1;shape=mxgraph.aws4.iot_thing_freertos_device;" vertex="1" parent="1">
          <mxGeometry x="794" y="292" width="78" height="78" as="geometry" />
        </mxCell>
        <mxCell id="P_Gc4P2CAjgiyAQ91wl4-38" value="" style="endArrow=none;dashed=1;html=1;rounded=0;" edge="1" parent="1" source="P_Gc4P2CAjgiyAQ91wl4-36" target="P_Gc4P2CAjgiyAQ91wl4-33">
          <mxGeometry width="50" height="50" relative="1" as="geometry">
            <mxPoint x="884" y="390.49" as="sourcePoint" />
            <mxPoint x="957.0000000000005" y="328.4950000000001" as="targetPoint" />
          </mxGeometry>
        </mxCell>
        <mxCell id="P_Gc4P2CAjgiyAQ91wl4-44" value="&lt;font style=&quot;font-size: 16px;&quot;&gt;Gateway&lt;/font&gt;" style="sketch=0;outlineConnect=0;fontColor=#232F3E;gradientColor=none;fillColor=#000000;strokeColor=none;dashed=0;verticalLabelPosition=bottom;verticalAlign=top;align=center;html=1;fontSize=12;fontStyle=0;aspect=fixed;pointerEvents=1;shape=mxgraph.aws4.iot_device_gateway;" vertex="1" parent="1">
          <mxGeometry x="623" y="294.5" width="78" height="73" as="geometry" />
        </mxCell>
        <mxCell id="P_Gc4P2CAjgiyAQ91wl4-45" value="" style="endArrow=none;dashed=1;html=1;rounded=0;" edge="1" parent="1" source="P_Gc4P2CAjgiyAQ91wl4-36" target="P_Gc4P2CAjgiyAQ91wl4-44">
          <mxGeometry width="50" height="50" relative="1" as="geometry">
            <mxPoint x="846" y="329" as="sourcePoint" />
            <mxPoint x="968" y="331.0078802588996" as="targetPoint" />
          </mxGeometry>
        </mxCell>
      </root>
    </mxGraphModel>
  </diagram>
</mxfile>
